<?xml version="1.0" encoding="UTF-8" standalone="no"?>
<svg width="132px" height="212px" viewBox="0 0 132 212" version="1.1" xmlns="http://www.w3.org/2000/svg" xmlns:xlink="http://www.w3.org/1999/xlink" xmlns:sketch="http://www.bohemiancoding.com/sketch/ns">
    <!-- Generator: Sketch 3.4.4 (17249) - http://www.bohemiancoding.com/sketch -->
    <title>Group</title>
    <desc>Created with Sketch.</desc>
    <defs></defs>
    <g id="Page-1" stroke="none" stroke-width="1" fill="none" fill-rule="evenodd" sketch:type="MSPage">
        <g id="Group" sketch:type="MSLayerGroup" fill="#000000">
            <path d="M3,211.708111 L128.330229,211.708111 C128.330229,211.708111 124.856509,114.999995 65.9402173,115 C7.02392575,115.000005 3,211.708111 3,211.708111 Z" id="Path-1" sketch:type="MSShapeGroup"></path>
            <path d="M67.6716159,12.376171 C95.1030811,12.376171 115.864342,38.1897969 115.864341,59.4341696 C115.864339,80.6785423 104.459586,93.5917472 104.459586,93.5917472 L97.9458888,93.5917473 L93.13548,90.9110463 C93.13548,90.9110463 97.8436739,86.8776182 102.026432,79.038344 C106.209189,71.1990699 105.345965,63.5873811 105.345965,63.5873811 C105.345965,63.5873811 81.4017208,61.9839133 69.7478206,57.2693289 C58.0939205,52.5547446 45.8714563,39.0921468 45.8714563,39.0921468 C45.8714563,39.0921468 41.5657253,44.3082129 37.0851136,49.243994 C32.6045019,54.1797751 26.8709802,58.1205718 26.8709802,58.1205718 C26.8709802,58.1205718 23.9435299,70.6480788 34.1576641,85.9425238 C44.3717983,101.236969 65.0356319,101.631458 65.0356319,101.631458 C65.0356319,101.631458 65.079553,104.977337 67.6716144,107.35619 C70.2636759,109.735042 78.5437468,109.879581 78.5437468,109.879581 C78.5437468,109.879581 75.6330668,111.591656 65.0356333,111.591652 C54.4381997,111.591648 42.7443713,107.69557 31.6326781,97.9158449 C20.5209848,88.1361197 15.9772889,71.5584166 16.8205477,57.2693289 C17.6638064,42.9802413 21.4097608,39.0921477 24.6039231,34.205078 C27.7980855,29.3180083 40.2401508,12.376171 67.6716159,12.376171 Z" id="Path-2" sketch:type="MSShapeGroup"></path>
            <path d="M12.098993,66.6113523 C12.098993,66.6113523 12.5117337,66.4392255 12.8030116,66.6113523 C13.0942895,66.783479 13.2119166,67.0277494 13.2119166,67.0277494 L18.7536542,84.9932035 C18.7536542,84.9932035 19.190732,86.4255002 18.8516843,87.1641858 C18.5126365,87.9028714 17.5868699,88.2923597 17.5868699,88.2923597 L9.45437877,91.1025479 C9.45437877,91.1025479 7.76668184,91.6515592 6.89742582,91.1025479 C6.0281698,90.5535367 6.02816979,89.8615754 6.02816979,89.8615754 L0.537505368,71.7021573 C0.537505368,71.7021573 0.104215841,70.0246366 0.537505369,69.4327024 C0.789923143,69.0878643 2.41580717,68.6166623 2.41580717,68.6166623 C2.41580717,68.6166623 3.84696262,68.3479474 3.84696262,67.7697309 C3.84696262,66.5147641 3.75903051,67.4268354 3.84696262,62.6094487 C3.93489473,57.7920621 3.45453587,51.3167888 7.95754502,39.6415418 C13.6088172,24.9891179 29.9485594,0.0786467542 67.9207606,0.0786450548 C105.892962,0.0786433555 123.599007,34.2913206 125.515502,44.690717 C127.431998,55.0901135 128.033706,68.0384458 128.033706,68.0384458 L129.904686,68.7971357 C129.904686,68.7971357 131.369651,69.184152 131.609352,69.6520703 C131.849052,70.1199887 131.609352,70.5008023 131.609352,70.5008023 L126.055641,89.0539182 C126.055641,89.0539182 125.940056,87.0873807 125.515503,85.9065869 C125.09095,84.7257932 124.646492,82.9430223 122.535247,81.9882367 C118.15435,80.0070279 113.95581,84.9932035 113.95581,84.9932035 C113.95581,84.9932035 115.986605,77.375899 117.603973,71.7021573 C117.750854,71.1868955 118.612243,67.2870877 118.975539,66.783479 C119.338836,66.2798703 120.411605,66.0085538 120.411605,66.0085538 C120.411605,66.0085538 123.89302,23.1389535 81.1000206,10.3553613 C48.17995,1.3645832 27.8284305,22.6821359 22.7816528,28.5011018 C20.3559962,31.2978988 15.3804421,38.9430326 13.3612693,47.3338864 C11.8498853,53.6145784 11.6030514,58.0030112 11.5765292,61.4294828 C11.5647631,62.9495747 11.5765292,64.141023 11.8377072,65.6910413 C11.8748772,65.911635 12.098993,66.6113523 12.098993,66.6113523 Z" id="Path-3" sketch:type="MSShapeGroup"></path>
            <path d="M68.1886106,96.4236829 C68.1886106,96.4236829 68.403852,95.1914562 69.1370557,94.3692697 C69.8702594,93.5470833 70.9115949,93.2497738 70.9115949,93.2497738 L92.469406,93.5470835 C92.469406,93.5470835 93.956256,93.3934684 94.8051963,94.3692697 C95.6541365,95.345071 95.4166502,96.2739759 95.4166502,96.2739759 L99.0279559,96.2739755 C99.0279559,96.2739755 106.749292,96.2739755 111.448828,91.7094149 C114.141174,89.618648 116.82776,86.3797848 117.306944,85.511905 C117.786127,84.6440251 118.405096,83.2608885 120.415919,83.2608885 C121.946657,83.929159 122.578551,84.6106565 122.578554,86.6791989 C122.578557,88.7477413 118.026919,95.3697209 113.115747,98.3298921 C105.972799,102.89325 95.4476137,102.016954 95.4476137,102.016954 L95.5074364,104.606164 C95.5074364,104.606164 95.6676655,105.096469 94.7153119,106.039503 C93.7629584,106.982537 93.0444854,106.69154 93.0444854,106.69154 L71.670351,106.908585 C71.670351,106.908585 70.006138,106.932033 69.1370557,106.039502 C68.2679734,105.146972 68.3587595,104.773006 68.3587595,104.773006 L68.1886106,96.4236829 Z" id="Path-4" sketch:type="MSShapeGroup"></path>
        </g>
    </g>
</svg>