<?xml version="1.0" encoding="UTF-8" standalone="no"?>
<svg width="34px" height="34px" viewBox="0 0 34 34" version="1.1" xmlns="http://www.w3.org/2000/svg" xmlns:xlink="http://www.w3.org/1999/xlink" xmlns:sketch="http://www.bohemiancoding.com/sketch/ns">
    <!-- Generator: Sketch 3.4.4 (17249) - http://www.bohemiancoding.com/sketch -->
    <title>ic_phone_white_48px</title>
    <desc>Created with Sketch.</desc>
    <defs></defs>
    <g id="Page-1" stroke="none" stroke-width="1" fill="none" fill-rule="evenodd" sketch:type="MSPage">
        <g id="FHD-Copy" sketch:type="MSArtboardGroup" transform="translate(-1612.000000, -8.000000)" fill="#FFFFFF">
            <g id="Phone" sketch:type="MSLayerGroup" transform="translate(1609.000000, 6.000000)">
                <g id="ic_phone_white_48px" transform="translate(3.000000, 2.000000)" sketch:type="MSShapeGroup">
                    <path d="M16.65,0 C7.45,0 0,7.46666667 0,16.6666667 C0,25.8666667 7.45,33.3333333 16.65,33.3333333 C25.8666667,33.3333333 33.3333333,25.8666667 33.3333333,16.6666667 C33.3333333,7.46666667 25.8666667,0 16.65,0 L16.65,0 Z M16.6666667,30 C9.3,30 3.33333333,24.0333333 3.33333333,16.6666667 C3.33333333,9.3 9.3,3.33333333 16.6666667,3.33333333 C24.0333333,3.33333333 30,9.3 30,16.6666667 C30,24.0333333 24.0333333,30 16.6666667,30 L16.6666667,30 Z" id="Shape-Copy"></path>
                    <path d="M11.4188889,15.3572222 C12.7788889,18.03 14.97,20.2116667 17.6427778,21.5811111 L19.7205556,19.5033333 C19.9755556,19.2483333 20.3533333,19.1633333 20.6838889,19.2766667 C21.7416667,19.6261111 22.8844444,19.815 24.0555556,19.815 C24.575,19.815 25,20.24 25,20.7594444 L25,24.0555556 C25,24.575 24.575,25 24.0555556,25 C15.1872222,25 8,17.8127778 8,8.94444444 C8,8.425 8.425,8 8.94444444,8 L12.25,8 C12.7694444,8 13.1944444,8.425 13.1944444,8.94444444 C13.1944444,10.125 13.3833333,11.2583333 13.7327778,12.3161111 C13.8366667,12.6466667 13.7611111,13.015 13.4966667,13.2794444 L11.4188889,15.3572222 L11.4188889,15.3572222 Z" id="Shape"></path>
                </g>
            </g>
        </g>
    </g>
</svg>