<?xml version="1.0" encoding="UTF-8" standalone="no"?>
<svg width="287px" height="75px" viewBox="0 0 287 75" version="1.1" xmlns="http://www.w3.org/2000/svg" xmlns:xlink="http://www.w3.org/1999/xlink" xmlns:sketch="http://www.bohemiancoding.com/sketch/ns">
    <!-- Generator: Sketch 3.4.4 (17249) - http://www.bohemiancoding.com/sketch -->
    <title>Phone</title>
    <desc>Created with Sketch.</desc>
    <defs></defs>
    <g id="Page-1" stroke="none" stroke-width="1" fill="none" fill-rule="evenodd" sketch:type="MSPage">
        <g id="FHD-Copy-7" sketch:type="MSArtboardGroup" transform="translate(-1521.000000, -74.000000)">
            <g id="Phone" sketch:type="MSLayerGroup" transform="translate(1518.000000, 72.000000)">
                <text id="8-906-454-07-60" sketch:type="MSTextLayer" font-family="Roboto" font-size="32.4012605" font-weight="260" letter-spacing="-0.542926908" fill="#FFFFFF">
                    <tspan x="47.6281513" y="30">8-906-454-07-60</tspan>
                </text>
                <text id="Ежедневно-8:00-18:00" sketch:type="MSTextLayer" font-family="Roboto" font-size="25.0651261" font-weight="260" letter-spacing="-0.420000166" fill="#FFFFFF">
                    <tspan x="47.6281513" y="66.516129">Ежедневно 8:00-18:00</tspan>
                </text>
                <g id="ic_phone_white_48px" transform="translate(3.000000, 2.000000)" fill="#FFFFFF" sketch:type="MSShapeGroup">
                    <path d="M16.65,0 C7.45,0 0,7.46666667 0,16.6666667 C0,25.8666667 7.45,33.3333333 16.65,33.3333333 C25.8666667,33.3333333 33.3333333,25.8666667 33.3333333,16.6666667 C33.3333333,7.46666667 25.8666667,0 16.65,0 L16.65,0 Z M16.6666667,30 C9.3,30 3.33333333,24.0333333 3.33333333,16.6666667 C3.33333333,9.3 9.3,3.33333333 16.6666667,3.33333333 C24.0333333,3.33333333 30,9.3 30,16.6666667 C30,24.0333333 24.0333333,30 16.6666667,30 L16.6666667,30 Z" id="Shape-Copy"></path>
                    <path d="M11.4188889,15.3572222 C12.7788889,18.03 14.97,20.2116667 17.6427778,21.5811111 L19.7205556,19.5033333 C19.9755556,19.2483333 20.3533333,19.1633333 20.6838889,19.2766667 C21.7416667,19.6261111 22.8844444,19.815 24.0555556,19.815 C24.575,19.815 25,20.24 25,20.7594444 L25,24.0555556 C25,24.575 24.575,25 24.0555556,25 C15.1872222,25 8,17.8127778 8,8.94444444 C8,8.425 8.425,8 8.94444444,8 L12.25,8 C12.7694444,8 13.1944444,8.425 13.1944444,8.94444444 C13.1944444,10.125 13.3833333,11.2583333 13.7327778,12.3161111 C13.8366667,12.6466667 13.7611111,13.015 13.4966667,13.2794444 L11.4188889,15.3572222 L11.4188889,15.3572222 Z" id="Shape"></path>
                </g>
                <g id="ic_query_builder_white_48px" transform="translate(0.000000, 40.000000)" sketch:type="MSShapeGroup">
                    <g id="Group">
                        <path d="M19.9833333,3.33333333 C10.7833333,3.33333333 3.33333333,10.8 3.33333333,20 C3.33333333,29.2 10.7833333,36.6666667 19.9833333,36.6666667 C29.2,36.6666667 36.6666667,29.2 36.6666667,20 C36.6666667,10.8 29.2,3.33333333 19.9833333,3.33333333 L19.9833333,3.33333333 Z M20,33.3333333 C12.6333333,33.3333333 6.66666667,27.3666667 6.66666667,20 C6.66666667,12.6333333 12.6333333,6.66666667 20,6.66666667 C27.3666667,6.66666667 33.3333333,12.6333333 33.3333333,20 C33.3333333,27.3666667 27.3666667,33.3333333 20,33.3333333 L20,33.3333333 Z" id="Shape" fill="#FFFFFF"></path>
                        <path d="M0,0 L40,0 L40,40 L0,40 L0,0 Z" id="Shape"></path>
                        <path d="M20.8333333,11.6666667 L18.3333333,11.6666667 L18.3333333,21.6666667 L27.0833333,26.9166667 L28.3333333,24.8666667 L20.8333333,20.4166667 L20.8333333,11.6666667 Z" id="Shape" fill="#F6F6F6"></path>
                    </g>
                </g>
            </g>
        </g>
    </g>
</svg>