<?xml version="1.0" encoding="UTF-8" standalone="no"?>
<svg width="31px" height="30px" viewBox="0 0 31 30" version="1.1" xmlns="http://www.w3.org/2000/svg" xmlns:xlink="http://www.w3.org/1999/xlink" xmlns:sketch="http://www.bohemiancoding.com/sketch/ns">
    <!-- Generator: Sketch 3.4.4 (17249) - http://www.bohemiancoding.com/sketch -->
    <title>Group</title>
    <desc>Created with Sketch.</desc>
    <defs></defs>
    <g id="Page-1" stroke="none" stroke-width="1" fill="none" fill-rule="evenodd" sketch:type="MSPage">
        <g id="FHD-Copy" sketch:type="MSArtboardGroup" transform="translate(-11.000000, -12.000000)" stroke="#FFFFFF" stroke-width="2">
            <g id="Instrument-+-ПЛАНЕТА-ИНСТРУМЕНТОВ-+-Group" sketch:type="MSLayerGroup" transform="translate(12.000000, 11.000000)">
                <g id="Group" transform="translate(0.000000, 2.661290)" sketch:type="MSShapeGroup">
                    <ellipse id="Oval-1" cx="14.0628834" cy="13.5725806" rx="14.0628834" ry="13.5725806"></ellipse>
                    <path d="M3.08227582,5.27822581 C3.08227582,5.27822581 8.06612691,9.51913411 14.261301,9.51913411 C20.4564752,9.51913411 25.4403262,5.87359288 25.4403262,5.87359288" id="Line" stroke-linecap="square"></path>
                    <path d="M25.2436718,21.4316416 C25.2436718,21.4316416 20.2598207,17.1907333 14.0646466,17.1907333 C7.86947249,17.1907333 2.8856214,20.8362746 2.8856214,20.8362746" id="Line-Copy" stroke-linecap="square"></path>
                    <path d="M14.6975147,26.9989768 C14.6975147,26.9989768 21.1502169,24.7430018 21.1502175,13.6870865 C21.150218,2.63117115 14.6975147,0.183834081 14.6975147,0.183834081" id="Line-Copy-2" stroke-linecap="square"></path>
                    <path d="M13.4835038,0.149501281 C13.4835038,0.149501281 7.03080156,2.4054763 7.03080101,13.4613916 C7.03080046,24.517307 13.4835038,26.964644 13.4835038,26.964644" id="Line-Copy-3" stroke-linecap="square"></path>
                    <path d="M0.288963358,13.4050179 L28.0294458,13.4050179" id="Line" stroke-linecap="square"></path>
                    <path d="M13.8934511,0.0942540323 L13.8934511,26.9566532" id="Line-Copy-4" stroke-linecap="square"></path>
                </g>
            </g>
        </g>
    </g>
</svg>