<?xml version="1.0" encoding="UTF-8" standalone="no"?>
<svg width="34px" height="34px" viewBox="0 0 34 34" version="1.1" xmlns="http://www.w3.org/2000/svg" xmlns:xlink="http://www.w3.org/1999/xlink" xmlns:sketch="http://www.bohemiancoding.com/sketch/ns">
    <!-- Generator: Sketch 3.4.4 (17249) - http://www.bohemiancoding.com/sketch -->
    <title>Group</title>
    <desc>Created with Sketch.</desc>
    <defs></defs>
    <g id="Page-1" stroke="none" stroke-width="1" fill="none" fill-rule="evenodd" sketch:type="MSPage">
        <g id="FHD-Copy" sketch:type="MSArtboardGroup" transform="translate(-1612.000000, -49.000000)">
            <g id="Phone" sketch:type="MSLayerGroup" transform="translate(1609.000000, 6.000000)">
                <g id="ic_query_builder_white_48px" transform="translate(0.000000, 40.000000)" sketch:type="MSShapeGroup">
                    <g id="Group">
                        <path d="M19.9833333,3.33333333 C10.7833333,3.33333333 3.33333333,10.8 3.33333333,20 C3.33333333,29.2 10.7833333,36.6666667 19.9833333,36.6666667 C29.2,36.6666667 36.6666667,29.2 36.6666667,20 C36.6666667,10.8 29.2,3.33333333 19.9833333,3.33333333 L19.9833333,3.33333333 Z M20,33.3333333 C12.6333333,33.3333333 6.66666667,27.3666667 6.66666667,20 C6.66666667,12.6333333 12.6333333,6.66666667 20,6.66666667 C27.3666667,6.66666667 33.3333333,12.6333333 33.3333333,20 C33.3333333,27.3666667 27.3666667,33.3333333 20,33.3333333 L20,33.3333333 Z" id="Shape" fill="#FFFFFF"></path>
                        <path d="M0,0 L40,0 L40,40 L0,40 L0,0 Z" id="Shape"></path>
                        <path d="M20.8333333,11.6666667 L18.3333333,11.6666667 L18.3333333,21.6666667 L27.0833333,26.9166667 L28.3333333,24.8666667 L20.8333333,20.4166667 L20.8333333,11.6666667 Z" id="Shape" fill="#F6F6F6"></path>
                    </g>
                </g>
            </g>
        </g>
    </g>
</svg>